<svg width="159" height="159" viewBox="0 0 159 159" fill="none" xmlns="http://www.w3.org/2000/svg">
<path d="M29.9119 56.1204V102.866C29.9119 105.848 31.535 108.61 34.1519 110.101L75.26 133.481C76.5534 134.212 78.014 134.597 79.5 134.597C80.9859 134.597 82.4466 134.212 83.74 133.481L124.835 110.094C127.458 108.61 129.075 105.854 129.075 102.873V56.1138C129.075 53.1325 127.458 50.3699 124.835 48.8859L83.74 25.5063C82.4466 24.7747 80.9859 24.3903 79.5 24.3903C78.014 24.3903 76.5534 24.7747 75.26 25.5063L34.1519 48.8925C32.8674 49.6122 31.7981 50.6613 31.0539 51.9317C30.3098 53.2022 29.9113 54.6481 29.9119 56.1204Z" fill="#213147"/>
<path d="M88.4636 88.563L82.6005 104.397C82.441 104.835 82.441 105.316 82.6005 105.755L92.6904 132.997L104.35 126.365L90.3517 88.563C90.2802 88.3703 90.1514 88.204 89.9827 88.0867C89.8139 87.9693 89.6132 87.9064 89.4077 87.9064C89.2021 87.9064 89.0015 87.9693 88.8327 88.0867C88.664 88.204 88.5352 88.3703 88.4636 88.563ZM100.216 61.9371C100.145 61.7444 100.016 61.5782 99.8473 61.4608C99.6785 61.3434 99.4779 61.2805 99.2723 61.2805C99.0667 61.2805 98.8661 61.3434 98.6973 61.4608C98.5286 61.5782 98.3998 61.7444 98.3282 61.9371L92.4651 77.7708C92.3056 78.2095 92.3056 78.6903 92.4651 79.129L108.988 123.728L120.654 117.097L100.216 61.9371Z" fill="#12AAFF"/>
<path d="M79.4868 27.2619C79.7777 27.2727 80.0626 27.3474 80.3215 27.4805L124.808 52.7748C125.059 52.9179 125.268 53.124 125.414 53.3727C125.561 53.6213 125.64 53.9039 125.643 54.1925V104.774C125.643 105.364 125.325 105.901 124.808 106.192L80.3215 131.493C80.0668 131.636 79.7788 131.709 79.4868 131.705C79.1986 131.695 78.916 131.623 78.6586 131.493L34.1718 106.219C33.9202 106.075 33.7107 105.868 33.5643 105.618C33.4178 105.368 33.3394 105.084 33.337 104.794V54.2058C33.337 53.6161 33.655 53.0795 34.1718 52.7814L78.6586 27.4871C78.9113 27.3434 79.1961 27.2659 79.4868 27.2619ZM79.4868 19.875C77.91 19.875 76.32 20.2725 74.9023 21.0874L30.4286 46.375C29.0388 47.1572 27.8815 48.2942 27.0749 49.67C26.2683 51.0457 25.8413 52.611 25.8375 54.2058V104.788C25.8375 108.014 27.5865 111.002 30.4286 112.612L74.9089 137.913C76.3099 138.703 77.8913 139.119 79.5 139.119C81.1087 139.119 82.6902 138.703 84.0911 137.913L128.571 112.618C129.961 111.836 131.119 110.699 131.925 109.323C132.732 107.948 133.159 106.382 133.163 104.788V54.2058C133.159 52.611 132.732 51.0457 131.925 49.67C131.119 48.2942 129.961 47.1572 128.571 46.375L84.0779 21.0874C82.6787 20.2917 81.0964 19.8739 79.4868 19.875Z" fill="#9DCCED"/>
<path d="M50.0784 123.788L54.166 112.751L62.4075 119.495L54.7026 126.425L50.0784 123.788Z" fill="#213147"/>
<path d="M75.7436 50.5819H64.4679C64.0569 50.5775 63.6545 50.7006 63.3164 50.9344C62.9782 51.1681 62.7209 51.5009 62.5798 51.887L38.4052 117.157L50.0718 123.788L76.691 51.9135C76.7443 51.7628 76.7605 51.6014 76.7381 51.4431C76.7157 51.2848 76.6555 51.1343 76.5625 51.0042C76.4695 50.8742 76.3465 50.7685 76.204 50.6961C76.0614 50.6237 75.9035 50.5802 75.7436 50.5819ZM95.4795 50.5819H84.1971C83.7872 50.5789 83.3864 50.7026 83.0496 50.9363C82.7127 51.1699 82.4564 51.502 82.3157 51.887L54.7093 126.418L66.3759 133.043L96.4203 51.9135C96.4734 51.7633 96.4896 51.6026 96.4676 51.4448C96.4455 51.287 96.3859 51.1369 96.2936 51.007C96.2014 50.8771 96.0793 50.7713 95.9376 50.6984C95.796 50.6256 95.6388 50.5813 95.4795 50.5819Z" fill="white"/>
</svg>
