<svg width="127" height="127" viewBox="0 0 127 127" fill="none" xmlns="http://www.w3.org/2000/svg">
<path d="M37.5179 30.4535L63.5 15.875L89.4821 30.4535L79.9571 35.851L63.5 26.6435L47.0694 35.851L37.5179 30.4535ZM89.4821 48.8685L79.9571 43.471L63.5 52.6785L47.0694 43.471L37.5179 48.8685V59.6371L53.9221 68.8446V87.2331L63.5 92.6306L73.0515 87.2331V68.8446L89.4821 59.6371V48.8685ZM89.4821 78.0521V67.2571L79.9571 72.6546V83.4231L89.4821 78.0521ZM96.2819 81.8621L79.8513 91.0431V101.838L105.833 87.2331V58.076L96.2819 63.4471V81.8621ZM86.7304 39.661L96.2554 45.0585V55.8271L105.833 50.456V39.661L96.2819 34.2635L86.7304 39.6875V39.661ZM53.9221 94.959V105.727L63.5 111.125L73.0515 105.727V94.9854L63.5 100.356L53.9486 94.959H53.9221ZM37.5179 78.0256L47.0429 83.4231V72.6546L37.5179 67.2571V78.0521V78.0256ZM53.9221 39.661L63.5 45.0585L73.0515 39.661L63.5 34.2635L53.9486 39.6875L53.9221 39.661ZM30.7181 45.0585L40.2696 39.661L30.7446 34.2635L21.1667 39.6875V50.4825L30.7181 55.8535V45.0585ZM30.7181 63.4471L21.1667 58.076V87.2331L47.1488 101.838V91.0167L30.7446 81.8356V63.4206L30.7181 63.4471Z" fill="#F0B90B"/>
</svg>
