<svg width="159" height="159" viewBox="0 0 159 159" fill="none" xmlns="http://www.w3.org/2000/svg">
<path fill-rule="evenodd" clip-rule="evenodd" d="M77.3469 25.6454H31.4158V60.2676H19.875V75.6575H31.4158V83.3425H19.875V98.7324H31.4158V133.355H77.3469C88.284 133.366 98.9681 130.065 107.992 123.884C117.015 117.704 123.955 108.935 127.896 98.7324H139.125V83.3491H131.274C131.461 80.7864 131.461 78.2136 131.274 75.6509H139.125V60.2743H127.896C123.947 50.0772 117.005 41.3132 107.984 35.134C98.9619 28.9548 88.2819 25.6427 77.3469 25.6454ZM115.812 83.3558C116.077 80.7941 116.077 78.228 115.812 75.6575H46.8056V83.3558H115.851H115.812ZM46.8056 98.739V117.971H76.4989C91.1202 117.971 103.926 110.24 110.737 98.739H46.8056ZM46.8056 60.2676H110.777C107.224 54.3717 102.2 49.4995 96.1984 46.1282C90.1967 42.7569 83.4223 41.002 76.5386 41.0353H46.8056V60.2676Z" fill="#FDC134"/>
</svg>
