<svg width="127" height="127" viewBox="0 0 127 127" fill="none" xmlns="http://www.w3.org/2000/svg">
<path d="M39.2377 47.1593C40.1486 46.6316 41.1827 46.3536 42.2354 46.3536C43.2882 46.3536 44.3223 46.6316 45.2332 47.1593L58.9333 55.3403L68.236 60.6584L81.9626 68.8393C83.6983 69.9029 85.9949 69.9029 87.9263 68.8393L98.8272 62.4523C100.589 61.3939 102.722 59.4254 102.722 57.2982V44.6934C102.722 42.5662 100.759 40.603 98.8007 39.5393L88.0957 33.3163C87.1886 32.7945 86.1603 32.5198 85.1138 32.5198C84.0673 32.5198 83.0391 32.7945 82.132 33.3163L71.4005 39.5393C69.6648 40.5977 69.1039 42.5662 69.1039 44.6934V52.8426L60.6954 47.3604V39.1478C60.6954 37.0152 60.1345 35.0573 62.0924 33.9937L81.9679 22.2779C82.875 21.756 83.9032 21.4814 84.9498 21.4814C85.9963 21.4814 87.0245 21.756 87.9316 22.2779L108.13 33.9884C109.056 34.4947 109.826 35.2454 110.355 36.1589C110.884 37.0724 111.152 38.1135 111.13 39.1689V62.8121C111.141 63.8619 110.869 64.8952 110.34 65.8026C109.812 66.7099 109.048 67.4575 108.13 67.9662L87.9316 79.6766C87.0245 80.1985 85.9963 80.4732 84.9498 80.4732C83.9032 80.4732 82.875 80.1985 81.9679 79.6766L68.2413 71.6915L58.9386 66.1776L45.212 58.1872C44.3042 57.6643 43.2751 57.3891 42.2275 57.3891C41.1799 57.3891 40.1508 57.6643 39.243 58.1872L28.5433 64.4102C26.7758 65.4738 24.2835 67.437 24.2835 69.5643V82.169C24.2835 84.3015 26.6118 86.2595 28.5433 87.3231L39.243 93.7101C41.0104 94.779 43.307 94.779 45.2385 93.7101L55.9382 87.4924C57.7056 86.4288 60.7007 84.4656 60.7007 82.3383V74.1892L69.1092 79.6766V87.8575C69.1092 89.9848 67.2042 91.948 65.2727 93.0116L45.0162 104.696C43.2805 105.786 40.9787 105.786 39.0472 104.696L18.8489 92.9852C17.9647 92.4479 17.2292 91.6975 16.7097 90.8027C16.1902 89.9079 15.9032 88.8971 15.875 87.8628V64.2197C15.875 62.0871 16.9386 60.1292 18.8701 59.0656L39.2377 47.1593Z" fill="url(#paint0_linear_15_33)"/>
<defs>
<linearGradient id="paint0_linear_15_33" x1="15.875" y1="21.4842" x2="99.2558" y2="115.988" gradientUnits="userSpaceOnUse">
<stop stop-color="#8F34C2"/>
<stop offset="1" stop-color="#7442DB"/>
</linearGradient>
</defs>
</svg>
