<svg width="159" height="159" viewBox="0 0 159 159" fill="none" xmlns="http://www.w3.org/2000/svg">
<path fill-rule="evenodd" clip-rule="evenodd" d="M26.2748 104.675C30.5987 107.767 36.146 109.312 42.9168 109.312C51.1053 109.312 57.6463 107.462 62.54 103.761C67.4337 100.007 70.8765 94.3488 72.8684 86.7875C74.0609 82.15 75.0855 77.3733 75.9424 72.4576C76.2206 70.6998 76.362 69.2356 76.3664 68.0652C76.3664 64.2051 75.3704 60.8948 73.3785 58.1343C71.3254 55.2759 68.4747 53.0866 65.1834 51.8406C61.7119 50.4052 57.7877 49.6875 53.4108 49.6875C37.3164 49.6875 27.3348 57.2775 23.4658 72.4576C22.2803 77.2041 21.2265 81.9826 20.3056 86.7875C20.0495 88.2671 19.9059 89.7555 19.875 91.2527C19.875 97.0562 22.0083 101.53 26.2748 104.675ZM57.081 86.2906C55.4446 92.6307 50.9462 96.7581 44.1092 96.7581C37.3518 96.7581 35.0462 92.1868 36.2652 86.2906C37.1133 81.7253 38.1387 77.1948 39.3393 72.7093C41.0949 65.8591 45.2355 62.2418 52.2978 62.2418C59.0354 62.2418 61.2283 66.7468 60.0689 72.7093C59.2316 77.2699 58.2351 81.7997 57.081 86.2906ZM82.9317 108.716C83.2674 109.114 83.74 109.31 84.3495 109.306H95.6385C96.2162 109.296 96.7729 109.088 97.2152 108.716C97.7078 108.342 98.0356 107.791 98.1295 107.179L101.694 90.4842H113.175C120.423 90.4842 126.094 86.973 130.241 83.846C134.45 80.7234 137.246 75.896 138.628 69.3637C138.959 67.8267 139.125 66.3471 139.125 64.925C139.125 59.9916 137.246 56.2153 133.487 53.5962C129.777 50.986 124.853 49.6808 118.713 49.6808H96.6323C96.0538 49.6925 95.4969 49.9031 95.0555 50.2771C94.5729 50.6603 94.2476 51.2071 94.1413 51.8141L82.68 107.173C82.6163 107.433 82.6058 107.703 82.6491 107.967C82.6923 108.231 82.7885 108.49 82.9317 108.716ZM123.278 69.1848C122.238 73.7495 118.263 77.9232 113.592 77.9232H104.052L107.338 62.2286H117.296C120.688 62.2286 123.523 62.9043 123.523 66.6342C123.523 67.363 123.441 68.2132 123.278 69.1848Z" fill="#FE0420"/>
</svg>
