<svg width="159" height="159" viewBox="0 0 159 159" fill="none" xmlns="http://www.w3.org/2000/svg">
<path fill-rule="evenodd" clip-rule="evenodd" d="M79.5 139.125C112.559 139.125 139.125 112.559 139.125 79.5C139.125 46.4413 112.559 19.875 79.5 19.875C46.4413 19.875 19.875 46.4413 19.875 79.5C19.875 112.559 46.4413 139.125 79.5 139.125ZM95.8969 88.9207C95.8969 80.242 90.683 77.2607 80.2486 76.0285C72.7955 75.0215 71.3049 73.0473 71.3049 69.5493C71.3049 66.0844 73.8025 63.8517 78.758 63.8517C83.2299 63.8517 85.7275 65.3358 86.9531 69.0656C87.2181 69.8076 87.9601 70.2912 88.7088 70.2912H92.6573C92.8861 70.2984 93.114 70.2592 93.3272 70.1759C93.5405 70.0927 93.7347 69.9671 93.8981 69.8067C94.0615 69.6464 94.1908 69.4547 94.2781 69.243C94.3655 69.0314 94.409 68.8043 94.4062 68.5754V68.317C93.3993 62.8381 88.9274 57.6242 83.2299 57.1406V51.6617C83.2299 50.6547 82.4813 49.9061 81.2556 49.6875H77.9763C76.9693 49.6875 76.0351 50.4295 75.7767 51.6617V57.1406C68.3236 58.141 63.3681 63.8451 63.3681 70.066C63.3681 78.2678 68.3236 81.4743 78.758 82.7396C85.7275 83.9653 87.9667 85.4559 87.9667 89.4441C87.9667 93.3993 84.4555 96.1552 79.765 96.1552C73.2725 96.1552 71.0465 93.3992 70.2979 89.6694C70.0726 88.7021 69.3306 88.1788 68.582 88.1788H64.3354C64.1065 88.176 63.8793 88.2195 63.6677 88.3069C63.4561 88.3942 63.2643 88.5235 63.104 88.6869C62.9437 88.8503 62.8181 89.0445 62.7348 89.2578C62.6516 89.471 62.6123 89.6989 62.6195 89.9278V90.1928C63.5867 96.3805 67.575 100.627 75.7767 101.853V107.371C75.7767 108.378 76.5188 109.048 77.751 109.312H81.3285C82.2958 109.312 82.9715 108.637 83.2299 107.371V101.853C90.683 100.627 95.8969 95.6319 95.8969 88.9207ZM54.4111 107.491C58.016 110.791 62.2375 113.346 66.833 115.01C67.575 115.533 68.3236 116.501 68.3236 117.249V120.747C68.3236 121.231 68.3236 121.496 68.0586 121.714C67.84 122.721 66.833 123.205 65.826 122.722C56.787 119.84 48.8986 114.158 43.301 106.498C37.7034 98.8383 34.6865 89.5968 34.6865 80.1095C34.6865 70.6222 37.7034 61.3807 43.301 53.7208C48.8986 46.0609 56.787 40.3794 65.826 37.4975C66.091 37.2722 66.568 37.2722 66.833 37.2722C67.84 37.4975 68.3236 38.2461 68.3236 39.2465V42.718C68.3236 43.9767 67.84 44.7254 66.833 45.209C61.7518 47.0431 57.1371 49.9744 53.3172 53.7942C49.4974 57.6141 46.5661 62.2288 44.732 67.31C42.1683 74.2104 41.7192 81.7183 43.442 88.8751C45.1649 96.0318 48.9814 102.513 54.4045 107.491M90.9347 38.5045C91.16 37.4975 92.167 37.0139 93.174 37.4975C100.006 39.7152 106.208 43.5342 111.264 48.6361C116.32 53.738 120.082 59.9748 122.238 66.8264C129.691 90.4114 116.759 115.533 93.174 122.986C92.909 123.205 92.4254 123.205 92.167 123.205C91.16 122.987 90.6764 122.238 90.6764 121.231V117.766C90.6764 116.501 91.16 115.759 92.167 115.268C97.2463 113.434 101.859 110.504 105.678 106.685C109.497 102.866 112.427 98.2533 114.261 93.174C115.966 88.5931 116.746 83.7198 116.557 78.8356C116.368 73.9515 115.212 69.1533 113.158 64.7181C111.104 60.283 108.191 56.2988 104.588 52.9957C100.985 49.6927 96.7635 47.1362 92.167 45.474C91.4184 44.9506 90.6764 43.9834 90.6764 42.9764V39.5115C90.6764 38.9881 90.6764 38.7629 90.9414 38.5045" fill="#2775CA"/>
</svg>
