<svg width="127" height="127" viewBox="0 0 127 127" fill="none" xmlns="http://www.w3.org/2000/svg">
<path d="M63.5 101.6L15.875 54.61L34.0413 25.4H92.9587L111.125 54.61L63.5 101.6ZM68.2625 58.7375V52.9273C76.835 53.3506 84.836 55.0228 87.3125 57.1871C84.4338 59.7112 74.1204 61.5474 63.5 61.5474C52.8796 61.5474 42.5662 59.7112 39.6875 57.1871C42.1375 55.0175 50.165 53.3771 58.7375 52.9008V58.7375H68.2625ZM39.6875 57.1659V60.6637C42.1375 62.8333 50.1385 64.4737 58.7375 64.9499V77.7875H68.2625V64.9288C76.835 64.5002 84.8572 62.8333 87.3125 60.6637V53.6893C84.8572 51.5197 76.835 49.8528 68.2625 49.403V44.45H82.55V37.3063H44.45V44.45H58.7375V49.403C50.1385 49.8528 42.1375 51.5197 39.6875 53.6893V57.1659Z" fill="#009393"/>
</svg>
