<svg width="107" height="107" viewBox="0 0 107 107" fill="none" xmlns="http://www.w3.org/2000/svg">
<path d="M83.6517 45.6355C84.8956 37.187 78.5023 32.684 69.6927 29.6256L72.546 18.2435L65.591 16.5092L62.8135 27.6105L57.2628 26.2863L60.0761 15.1048L53.1211 13.375L50.2633 24.7972L45.8406 23.754V23.7094L36.224 21.3019L34.3738 28.7384C34.3738 28.7384 39.5231 29.9511 39.4429 29.9867C42.2561 30.7135 42.7421 32.5637 42.6618 34.0126L39.4384 47.0443L40.1651 47.2851L39.4028 47.1246L34.8553 65.3458C34.5343 66.1929 33.6515 67.4769 31.6809 66.9508C31.7612 67.0756 26.6519 65.747 26.6519 65.747L23.1923 73.674L32.2427 75.9254L37.1914 77.2139L34.2935 88.761L41.2485 90.4863L44.0706 79.0641L49.6569 80.5086L46.8036 91.8952L53.7586 93.625L56.6164 82.0779C68.4845 84.3294 77.4145 83.4466 81.1595 72.7065C84.1733 64.0573 80.9946 59.1086 74.7618 55.8094C79.3093 54.8063 82.7244 51.788 83.6116 45.6355H83.6517ZM67.7622 67.9227C65.6267 76.5719 51.0658 71.8639 46.3622 70.7315L50.183 55.4126C54.8866 56.6164 70.0137 58.908 67.7622 67.8781V67.9227ZM69.8933 45.5151C67.9628 53.3618 55.8139 49.376 51.9128 48.413L55.3681 34.5342C59.3137 35.5017 71.9441 37.3519 69.8933 45.5151Z" fill="#F7931A"/>
</svg>
