<svg width="127" height="127" viewBox="0 0 127 127" fill="none" xmlns="http://www.w3.org/2000/svg">
<path d="M63.5 15.875V51.0646L93.2656 64.3784L63.5 15.875Z" fill="#8FFCF3"/>
<path d="M63.5 15.875L33.7344 64.3784L63.5 51.0699V15.875Z" fill="#CABCF8"/>
<path d="M63.5 87.1908V111.12L93.2656 69.9294L63.5 87.1908Z" fill="#CBA7F5"/>
<path d="M63.5 111.125V87.1908L33.7344 69.9294L63.5 111.125Z" fill="#74A0F3"/>
<path d="M63.5 81.6504L93.2656 64.3837L63.5 51.0646V81.6504Z" fill="#CBA7F5"/>
<path d="M33.7344 64.3837L63.5 81.6451V51.0699L33.7344 64.3837Z" fill="#74A0F3"/>
<path fill-rule="evenodd" clip-rule="evenodd" d="M63.5 81.6451L33.7344 64.3784L63.5 15.875L93.2656 64.3784L63.5 81.6451ZM35.7135 62.9708L63.0185 18.4679V50.8265L35.7135 62.9708ZM35.306 64.1879L63.0237 51.8742V80.2587L35.306 64.1879ZM63.9762 51.8742V80.2587L91.6675 64.1826L63.9762 51.8742ZM63.9762 50.8265L91.2812 62.9708L63.9762 18.4679V50.8265Z" fill="#202699"/>
<path fill-rule="evenodd" clip-rule="evenodd" d="M63.5 86.8151L33.7344 69.9029L63.5 111.125L93.2656 69.9029L63.5 86.8151ZM37.0681 72.8821L63.0237 87.6459V108.839L37.0681 72.8821ZM63.9762 87.6459V108.839L89.9319 72.8821L63.9762 87.6459Z" fill="#202699"/>
</svg>
